<?xml version="1.0" encoding="UTF-8"?>
<svg id="Layer_2" data-name="Layer 2" xmlns="http://www.w3.org/2000/svg" viewBox="0 0 83.58 119.22">
  <defs>
    <style>
      .cls-1 {
        fill: #f9a5f9;
      }

      .cls-2 {
        fill: #e25072;
      }

      .cls-3 {
        fill: #d15ecb;
      }

      .cls-4 {
        fill: #117a48;
      }
    </style>
  </defs>
  <g id="Layer_1-2" data-name="Layer 1">
    <g>
      <rect x="36.79" y="75.55" width="10" height="43.14"/>
      <polygon class="cls-4" points="30.39 119.22 14.91 102.47 21.53 91.22 42.16 119.22 30.39 119.22"/>
      <polygon class="cls-4" points="53.94 119.22 69.42 102.47 62.8 91.22 42.16 119.22 53.94 119.22"/>
      <polygon class="cls-2" points="83.58 20.6 70.26 20.6 70.26 14.08 63.73 14.08 63.73 0 45.02 0 42.18 8.94 39.36 0 20.6 0 20.6 14.08 14.08 14.08 14.08 20.6 0 20.6 0 39.31 8.9 42.14 0 44.95 0 63.7 14.08 63.7 14.08 70.23 20.6 70.23 20.6 83.87 39.45 83.87 42.16 75.35 44.85 83.87 63.73 83.87 63.73 70.23 70.26 70.23 70.26 63.7 83.58 63.7 83.58 44.76 75.44 42.16 83.58 39.6 83.58 20.6"/>
      <polygon class="cls-3" points="16.32 33.71 8.43 31.45 8.44 31.45 17.56 31.78 25.31 31.78 25.31 25.31 31.78 25.31 31.78 17.56 31.44 8.25 31.44 8.25 33.75 16.32 36.66 25.31 42.17 25.31 40.22 18.39 35.9 4.71 25.31 4.71 25.31 18.79 18.79 18.79 18.79 25.31 4.71 25.31 4.71 35.86 18.39 40.22 25.31 42.15 25.31 36.61 16.32 33.71"/>
      <polygon class="cls-3" points="59.03 47.33 59.03 47.7 68.01 50.6 74.21 52.37 75.9 52.86 66.78 52.53 59.03 52.53 59.03 58.99 52.56 58.99 52.56 66.74 52.9 76.05 50.59 67.98 47.68 58.99 42.16 58.99 44.12 65.92 48.3 79.16 59.03 79.16 59.03 65.52 65.55 65.52 65.55 58.99 78.87 58.99 78.87 48.2 65.95 44.09 59.03 42.15 59.03 47.33 59.03 47.33"/>
      <polygon class="cls-3" points="78.87 36.14 78.87 25.31 65.55 25.31 65.55 18.79 59.02 18.79 59.02 4.71 48.47 4.71 44.11 18.39 42.17 25.31 47.72 25.31 50.63 16.32 52.89 8.43 52.55 17.56 52.55 25.31 59.02 25.31 59.02 25.23 59.03 25.31 59.03 31.35 59.03 31.78 66.78 31.78 74.1 31.51 76.09 31.44 68.01 33.75 59.03 36.66 59.03 42.15 65.95 40.22 78.87 36.14"/>
      <polygon class="cls-3" points="33.71 67.98 31.45 75.87 31.78 66.74 31.78 58.99 25.31 58.99 25.31 52.52 17.56 52.52 8.25 52.86 8.25 52.86 16.32 50.55 25.31 47.65 25.31 42.15 18.39 44.09 4.71 48.4 4.71 58.99 18.79 58.99 18.79 65.52 25.31 65.52 25.31 79.16 36 79.16 40.22 65.92 42.16 58.99 36.61 58.99 33.71 67.98"/>
      <circle class="cls-1" cx="42.19" cy="42.15" r="13.53" transform="translate(-12.92 19.35) rotate(-22.5)"/>
    </g>
  </g>
</svg>