<?xml version="1.0" encoding="UTF-8"?>
<svg id="Layer_2" data-name="Layer 2" xmlns="http://www.w3.org/2000/svg" xmlns:xlink="http://www.w3.org/1999/xlink" viewBox="0 0 786.25 468.13">
  <defs>
    <style>
      .cls-1 {
        fill: none;
      }

      .cls-2 {
        fill: #161716;
      }

      .cls-3 {
        fill: #b5dd3a;
      }

      .cls-4 {
        fill: url(#New_Pattern_2);
      }
    </style>
    <pattern id="New_Pattern_2" data-name="New Pattern 2" x="0" y="0" width="281.34" height="282.26" patternTransform="translate(-1985.83 -1330.9)" patternUnits="userSpaceOnUse" viewBox="0 0 281.34 282.26">
      <g>
        <rect class="cls-1" width="281.34" height="282.26"/>
        <path class="cls-2" d="M250.54,235.55l-8.04,15.46,15.49-8.01,18,18-14.26,14.26,6.98,6.98-6.98,6.98,14.6,14.6-17.94,17.94-15.99-8.32,8.29,16.02-17.89,17.89-14.6-14.6-6.98,6.98-6.98-6.98-15.07,15.07-17.79-17.79,8.6-16.53-16.56,8.56-17.74-17.74,15.07-15.07-6.98-6.98,6.98-6.98-15.07-15.07,17.79-17.79,16.58,8.63-8.59-16.62,17.74-17.74,15.07,15.07,6.99-6.99,6.98,6.98,14.26-14.26,18.05,18.05ZM226.5,266.53c-8.78-8.78-23.01-8.78-31.79,0-8.78,8.78-8.78,23.01,0,31.79,8.78,8.78,23.01,8.78,31.79,0,8.78-8.78,8.78-23.01,0-31.79Z"/>
        <path class="cls-2" d="M109.87,235.55l-8.04,15.46,15.49-8.01,18,18-14.26,14.26,6.98,6.98-6.98,6.98,14.6,14.6-17.94,17.94-15.99-8.32,8.29,16.02-17.89,17.89-14.6-14.6-6.98,6.98-6.98-6.98-15.07,15.07-17.79-17.79,8.6-16.53-16.56,8.56-17.74-17.74,15.07-15.07-6.98-6.98,6.98-6.98-15.07-15.07,17.79-17.79,16.58,8.63-8.59-16.62,17.74-17.74,15.07,15.07,6.99-6.99,6.98,6.98,14.26-14.26,18.05,18.05ZM85.83,266.53c-8.78-8.78-23.01-8.78-31.79,0-8.78,8.78-8.78,23.01,0,31.79,8.78,8.78,23.01,8.78,31.79,0s8.78-23.01,0-31.79Z"/>
        <path class="cls-2" d="M320.88,94.42l-8.04,15.46,15.49-8.01,18,18-14.26,14.26,6.98,6.98-6.98,6.98,14.6,14.6-17.94,17.94-15.99-8.32,8.29,16.02-17.89,17.89-14.6-14.6-6.98,6.98-6.98-6.98-15.07,15.07-17.79-17.79,8.6-16.53-16.56,8.56-17.74-17.74,15.07-15.07-6.98-6.98,6.98-6.98-15.07-15.07,17.79-17.79,16.58,8.63-8.59-16.62,17.74-17.74,15.07,15.07,6.99-6.99,6.98,6.98,14.26-14.26,18.05,18.05ZM296.83,125.4c-8.78-8.78-23.01-8.78-31.79,0s-8.78,23.01,0,31.79c8.78,8.78,23.01,8.78,31.79,0,8.78-8.78,8.78-23.01,0-31.79Z"/>
        <path class="cls-2" d="M180.21,94.42l-8.04,15.46,15.49-8.01,18,18-14.26,14.26,6.98,6.98-6.98,6.98,14.6,14.6-17.94,17.94-15.99-8.32,8.29,16.02-17.89,17.89-14.6-14.6-6.98,6.98-6.98-6.98-15.07,15.07-17.79-17.79,8.6-16.53-16.56,8.56-17.74-17.74,15.07-15.07-6.98-6.98,6.98-6.98-15.07-15.07,17.79-17.79,16.58,8.63-8.59-16.62,17.74-17.74,15.07,15.07,6.99-6.99,6.98,6.98,14.26-14.26,18.05,18.05ZM156.16,125.4c-8.78-8.78-23.01-8.78-31.79,0s-8.78,23.01,0,31.79c8.78,8.78,23.01,8.78,31.79,0,8.78-8.78,8.78-23.01,0-31.79Z"/>
        <path class="cls-2" d="M39.54,94.42l-8.04,15.46,15.49-8.01,18,18-14.26,14.26,6.98,6.98-6.98,6.98,14.6,14.6-17.94,17.94-15.99-8.32,8.29,16.02-17.89,17.89-14.6-14.6-6.98,6.98-6.98-6.98-15.07,15.07-17.79-17.79,8.6-16.53-16.56,8.56-17.74-17.74,15.07-15.07-6.98-6.98,6.98-6.98-15.07-15.07,17.79-17.79,16.58,8.63-8.59-16.62,17.74-17.74,15.07,15.07L.25,83.64l6.98,6.98,14.26-14.26,18.05,18.05ZM15.49,125.4c-8.78-8.78-23.01-8.78-31.79,0s-8.78,23.01,0,31.79c8.78,8.78,23.01,8.78,31.79,0,8.78-8.78,8.78-23.01,0-31.79Z"/>
        <path class="cls-2" d="M250.54-46.71l-8.04,15.46,15.49-8.01,18,18-14.26,14.26L268.72-.02l-6.98,6.98,14.6,14.6-17.94,17.94-15.99-8.32,8.29,16.02-17.89,17.89-14.6-14.6-6.98,6.98-6.98-6.98-15.07,15.07-17.79-17.79,8.6-16.53-16.56,8.56-17.74-17.74,15.07-15.07L153.76.01l6.98-6.98-15.07-15.07,17.79-17.79,16.58,8.63-8.59-16.62,17.74-17.74,15.07,15.07,6.99-6.99,6.98,6.98,14.26-14.26,18.05,18.05ZM226.5-15.73c-8.78-8.78-23.01-8.78-31.79,0-8.78,8.78-8.78,23.01,0,31.79,8.78,8.78,23.01,8.78,31.79,0,8.78-8.78,8.78-23.01,0-31.79Z"/>
        <path class="cls-2" d="M109.87-46.71l-8.04,15.46,15.49-8.01,18,18-14.26,14.26L128.05-.02l-6.98,6.98,14.6,14.6-17.94,17.94-15.99-8.32,8.29,16.02-17.89,17.89-14.6-14.6-6.98,6.98-6.98-6.98-15.07,15.07-17.79-17.79,8.6-16.53-16.56,8.56L5,22.07l15.07-15.07L13.08.01l6.98-6.98-15.07-15.07,17.79-17.79,16.58,8.63-8.59-16.62,17.74-17.74,15.07,15.07,6.99-6.99,6.98,6.98,14.26-14.26,18.05,18.05ZM85.83-15.73c-8.78-8.78-23.01-8.78-31.79,0-8.78,8.78-8.78,23.01,0,31.79,8.78,8.78,23.01,8.78,31.79,0s8.78-23.01,0-31.79Z"/>
      </g>
    </pattern>
  </defs>
  <g id="Layer_1-2" data-name="Layer 1">
    <g>
      <rect class="cls-3" width="785.55" height="468.13"/>
      <rect class="cls-4" x=".7" width="785.55" height="468.13"/>
    </g>
  </g>
</svg>